<svg viewBox="0 0 98 98" xmlns="http://www.w3.org/2000/svg">
  <path fill="#ffffff" d="M90 13.1V90H9.1V13.1z"/>
  <path d="M91.7 0H6.3C2.8 0 0 2.8 0 6.3v85.4C0 95.2 2.8 98 6.3 98h85.4c3.5 0 6.3-2.8 6.3-6.3V6.3C98 2.8 95.2 0 91.7 0M43.3 19.7h12.3c13.1 0 22.7 9.2 22.7 20.3s-1.8 8.5-2.3 9.4c0 .1-.2.2-.3 0L43.2 20c-.1-.1 0-.3.1-.3m-2.8 58.8H20.1q-.3 0-.3-.3v-19c0-.2.2-.3.4-.2l20.5 19.1c.2.1 0 .4-.2.4m40.4 0H63.7c-.2 0-.3 0-.4-.2L20 39.1c-.1-.1-.2-.3-.2-.4V21.3c0-.2.2-.3.4-.2l60.9 56.8c.2.2 0 .5-.2.5Z" fill="#bd1823"/>
  <path d="M78.2 40c0 4.7-1.8 8.5-2.3 9.4 0 .1-.2.2-.3 0L43.1 20c-.1-.1 0-.3.1-.3h12.3c13.1 0 22.7 9.2 22.7 20.3" fill="#ffffff"/>
  <path d="M80.9 78.5H63.7c-.2 0-.3 0-.4-.2L20 39.1c-.1-.1-.2-.3-.2-.4V21.3c0-.2.2-.3.4-.2l60.9 56.8c.2.2 0 .5-.2.5Z" fill="#ffffff"/>
</svg>
